<?xml version="1.0" standalone="no"?>
<!DOCTYPE svg PUBLIC "-//W3C//DTD SVG 1.1//EN" "http://www.w3.org/Graphics/SVG/1.1/DTD/svg11.dtd" >
<!--
2013-9-30: Created.
-->
<svg>
<metadata>
Created by iconfont
</metadata>
<defs>

<font id="iconfont" horiz-adv-x="1024" >
  <font-face
    font-family="iconfont"
    font-weight="500"
    font-stretch="normal"
    units-per-em="1024"
    ascent="896"
    descent="-128"
  />
    <missing-glyph />
    
    <glyph glyph-name="ok" unicode="&#58971;" d="M346.595344 211.50434399999995L135.774825 422.324864l-71.492264-71.447239 282.312784-282.268782 606.406137 606.358041-71.447239 71.492264L346.595344 211.50434399999995z"  horiz-adv-x="1024" />

    
    <glyph glyph-name="wancheng" unicode="&#58909;" d="M613.648 864a51.388 51.388 0 0 0 34.785-14.908c8.979-9.036 13.665-21.12 12.989-33.488 1.41-24.96-18.92-46.474-45.742-48.338H401.092c-27.388 1.298-48.396 22.927-47.04 48.338-1.356 25.412 19.652 47.098 46.984 48.396h212.611z m232.376-56.47l-0.169-0.17c79.793 0 117.91-45.403 117.91-111.078v-650.146c0-79.06-40.716-109.948-124.405-109.948H174.87c-83.915 0-114.07 39.53-114.692 109.948V696.452C60.235 761.958 81.525 807.53 167.812 807.53h108.197c-1.129-5.252-1.693-10.618-1.807-15.982 0-40.66 31.06-80.752 71.548-80.752h326.006c37.722 0 69.515 40.094 69.515 80.752a79.94 79.94 0 0 1-1.638 15.982h106.39zM296.847 345.092l146.71-146.71a37.722 37.722 0 0 1 51.953 0l264.113 263.716a36.536 36.536 0 0 1 0 52.292 36.536 36.536 0 0 1-51.84 0L469.535 276.818 349.252 396.931a36.932 36.932 0 0 1-51.896 0 36.197 36.197 0 0 1-0.566-51.84z"  horiz-adv-x="1024" />

    
    <glyph glyph-name="weiwancheng" unicode="&#58910;" d="M661.504 815.616c0.512 12.288-4.096 24.576-12.8 33.28-9.216 9.216-21.504 14.336-34.816 14.848H400.896c-27.136-1.024-48.128-23.04-47.104-48.64-1.536-25.6 19.456-47.104 47.104-48.128h214.528c27.136 2.048 47.616 23.552 46.08 48.64zM845.824 807.424h-106.496c1.024-5.12 1.536-10.752 1.536-15.872 0-40.448-31.744-80.896-69.632-80.896H345.6c-40.448 0-71.68 39.936-71.68 80.896 0 5.632 0.512 10.752 1.536 15.872h-107.52c-86.528 0-107.52-45.568-107.52-111.104v-650.24c0.512-70.656 30.72-110.08 114.688-110.08H839.68c83.456 0 124.416 30.72 124.416 110.08V696.32c-0.512 65.536-38.4 111.104-118.272 111.104z m-159.232-588.8c15.872-15.872 15.872-41.984 0-58.368-15.872-15.872-41.984-15.872-57.856 0l-112.64 112.64-112.64-112.64c-15.872-15.872-41.984-15.872-57.856 0-8.192 8.192-11.776 18.432-11.776 29.184s4.096 20.992 11.776 29.184l112.64 112.64-112.64 112.64c-15.872 15.872-15.872 41.984 0 57.856 8.192 8.192 18.432 11.776 29.184 11.776s20.992-4.096 29.184-11.776l112.64-112.64 112.64 112.64c15.872 15.872 41.984 15.872 57.856 0s15.872-41.984 0-57.856l-112.64-112.64 112.128-112.64z"  horiz-adv-x="1024" />

    
    <glyph glyph-name="wenjian" unicode="&#58911;" d="M170.667 839.111h512l170.666-170.667V-71.11H170.667V839.11z m56.889-56.889v-796.444h568.888v659.91L659.911 782.223H227.556zM739.556 213.333v-56.889H284.444v56.89h455.112z m0 170.667v-56.889H284.444V384h455.112zM625.778 611.556V839.11h-56.89v-284.444h284.445v56.889H625.778z"  horiz-adv-x="1024" />

    
    <glyph glyph-name="zujiantuandui" unicode="&#58912;" d="M1015.264 85.808c-10.704 33.376-35.872 53.568-65.888 68.256-20.8 10.208-42.976 17.568-63.904 27.52-16.944 8.096-33.504 17.312-48.816 28.032-6.608 4.608-12.336 14.192-13.456 22.176-2.496 16.432-1.744 33.376-1.872 50.064 0 2.736 1.248 6.224 3.12 8.352 15.568 16.688 22.672 37.232 28.032 58.784 0.864 3.232 3.488 7.104 6.464 8.72 17.568 9.968 25.792 44.096 13.2 59.904-4.112 5.232-4.112 9.456-2.48 15.072 8.96 30.272 13.072 60.912 10.576 92.544-2.864 36.24-23.168 61.04-57.92 69.248-2.992 0.752-5.728 3.248-8.48 4.848-8.336 5.104-16.064 13.2-25.024 14.816-17.44 3.248-35.616 5.232-53.184 3.856-65.264-4.976-103.136-39.984-105.632-109.104-0.864-26.528 3.744-52.32 9.216-78.096 0.736-3.744-0.384-9.088-2.624-12.208-12.08-16.688-4.976-50.816 12.832-61.04 2.736-1.616 5.728-4.848 6.464-7.728 5.232-22.288 12.832-43.216 29.024-60.288 1.744-1.744 2.736-4.992 2.624-7.472-0.24-20.048-0.88-39.984-1.376-61.904 4.608-1.744 11.456-3.744 17.808-6.608 17.44-7.728 35.744-14.192 51.824-24.288 17.808-11.088 27.52-28.272 26.896-50.816-0.624-24.16 0.992-48.32 1.12-72.496 0-7.968 2.24-10.464 10.592-10.464 72.24 0.368 144.48 0.24 216.608 0.112 3.744 0 7.344-0.368 11.088-0.624v1.872c-2.096 9.904-3.856 19.744-6.832 28.96zM761.68 134.256c0.624 23.296-10.096 37.36-28.656 47.696-7.344 4-15.072 7.232-22.784 10.224-26.16 10.336-52.432 20.432-78.592 30.88-29.024 11.456-57.296 25.408-87.184 34.016-21.424 6.224-35.616 16.8-43.968 36.608-1.872 4.24-4.608 8.096-6.096 12.448-2.496 7.472-6.848 11.216-15.072 12.08-11.456 1.232-12.704 4.24-8.224 15.072 0.992 2.608 2.128 5.36 3.984 7.232 12.944 12.944 17.072 28.64 16.944 46.448-0.128 15.936 4.992 29.648 21.792 36.496 4.496 1.856 8.976 7.344 10.592 12.208 10.464 29.648 17.184 59.664-0.24 89.424-1.616 2.864-3.12 6.48-2.992 9.584 0.752 21.296 1.376 42.592 2.992 63.776 2.112 27.904 0.624 54.928-13.584 80.096-4.976 8.72-11.952 13.2-22.048 14.688-6.848 0.992-14.576 3.744-19.808 8.224-25.776 22.176-55.92 27.904-88.304 25.904-29.392-1.744-56.544-12.336-83.696-22.8-28.032-10.72-46.336-30.272-55.056-58.672-8.592-27.904-7.232-56.288-2.992-84.576 2.624-17.44 8.224-34.624-3.744-50.816-0.864-1.12-0.992-2.992-0.752-4.48 2.992-22.288 5.36-44.72 9.584-66.768 2.112-11.2 9.712-18.928 22.176-20.928 2.736-0.368 6.592-4.736 6.976-7.6 2-15.072 2.112-30.272 4.608-45.216 1.232-7.472 5.36-14.704 8.96-21.68 2.608-5.104 7.104-9.344 9.84-14.448 3.104-5.472 2.864-10.208-5.36-10.832-6.112-0.496-9.216-4.48-11.952-9.968-5.36-11.088-11.456-21.92-17.696-32.624-4.736-8.096-11.696-12.832-21.168-15.072-11.088-2.496-22.048-5.968-32.64-10.208-50.32-20.064-100.512-40.24-150.592-60.784-9.088-3.744-18.064-8.352-26.16-13.824-13.2-8.976-20.176-21.168-20.048-38.24 0.256-33.76-1.248-67.504-2.112-101.264h331.184c3.232 23.168 6.352 46.464 9.712 69.632 4.48 30.256 9.216 60.416 13.456 90.8 0.368 3.104-0.992 6.592-2.368 9.584-4.352 9.584-8.592 19.184-13.712 28.4-3.856 6.976-2.24 10.704 4.992 13.072 3.248 0.992 6.592 2.368 9.088 4.48 26.016 20.688 47.696 7.36 70-9.456-5.488-11.216-11.712-22.544-16.688-34.512-2.128-5.36-3.36-12.08-2.128-17.568 11.344-50.32 23.296-100.512 35.136-150.704 0.256-1.12 0.256-2.368 0.384-3.616h316.24c-1.104 32.576-3.104 65.088-2.224 97.584z"  horiz-adv-x="1024" />

    
    <glyph glyph-name="shuaxin" unicode="&#58914;" d="M295.3 89.7c-7.2 0-14.4 2.4-20.4 7.3-9 7.5-17.8 15.5-26.1 23.8-34.2 34.2-61 74-79.8 118.3-19.4 45.9-29.3 94.7-29.3 144.9s9.8 99 29.3 144.9c18.7 44.3 45.6 84.1 79.8 118.3 34.2 34.2 74 61 118.3 79.8 45.9 19.4 94.7 29.3 144.9 29.3 17.7 0 32-14.3 32-32s-14.3-32-32-32c-82.3 0-159.7-32.1-217.9-90.3-58.2-58.2-90.3-135.6-90.3-217.9 0-82.3 32.1-159.7 90.3-217.9 6.9-6.9 14.2-13.5 21.7-19.7 13.6-11.3 15.5-31.4 4.3-45.1-6.4-7.7-15.6-11.7-24.8-11.7zM512 11.8c-17.7 0-32 14.3-32 32s14.3 32 32 32c82.3 0 159.7 32.1 217.9 90.3s90.3 135.6 90.3 217.9-32.1 159.7-90.3 217.9c-7.4 7.4-15.2 14.5-23.3 21.1-13.7 11.2-15.7 31.3-4.6 45 11.2 13.7 31.3 15.7 45 4.6 9.8-8 19.2-16.5 28.1-25.4 34.2-34.2 61-74 79.8-118.3 19.4-45.9 29.3-94.7 29.3-144.9s-9.8-99-29.3-144.9c-18.7-44.3-45.6-84.1-79.8-118.3-34.2-34.2-74-61-118.3-79.8-45.8-19.3-94.6-29.2-144.8-29.2zM518.8 825.2l98.3-98.3c1.6-1.6 1.6-4.1 0-5.7l-98.3-98.3c-2.5-2.5-6.8-0.7-6.8 2.8V822.3c0 3.6 4.3 5.4 6.8 2.9z m-13.6-680.4l-98.3-98.3c-1.6-1.6-1.6-4.1 0-5.7l98.3-98.3c2.5-2.5 6.8-0.7 6.8 2.8V141.9c0 3.6-4.3 5.4-6.8 2.9z"  horiz-adv-x="1024" />

    
    <glyph glyph-name="xxxxxx" unicode="&#58904;" d="M985.6 115.2h-35.328c6.1312 9.152 9.728 20.16 9.728 32s-3.5968 22.848-9.728 32H972.8a25.6 25.6 0 0 1 25.6 25.6V806.4a25.6 25.6 0 0 1-25.6 25.6H89.6a25.6 25.6 0 0 1-25.6-25.6v-601.6a25.6 25.6 0 0 1 25.6-25.6h9.728A57.3184 57.3184 0 0 1 89.6 147.2c0-11.84 3.5968-22.848 9.728-32H76.8a76.8 76.8 0 0 0-76.8 76.8V819.2a76.8 76.8 0 0 0 76.8 76.8h908.8a76.8 76.8 0 0 0 76.8-76.8v-627.2a76.8 76.8 0 0 0-76.8-76.8zM38.8864-22.2592C68.8896 23.1808 141.6832 42.9952 166.4 51.2c12.9152 4.288 15.0912 13.7728 13.2864 23.424A127.552 127.552 0 0 0 140.8 166.4v64c0 70.6944 57.3056 128 128 128s128-57.3056 128-128v-64a127.5392 127.5392 0 0 0-38.6944-91.6096c-2.176-10.24-0.2944-20.48 13.0944-25.0368 31.2704-10.624 139.776-40.0384 140.8-117.7984 0-0.448-0.1024-0.8192-0.1152-1.2544 0.0128-0.3712 0.1152-0.7168 0.1152-1.1008a57.6 57.6 0 0 0-57.6-57.6h-384A57.6 57.6 0 0 0 12.8-70.4a57.472 57.472 0 0 0 26.0864 48.1408zM294.4 691.2h448a38.4 38.4 0 1 0 0-76.8H294.4a38.4 38.4 0 1 0 0 76.8z m-38.4-217.6a38.4 38.4 0 0 0 38.4 38.4h243.2a38.4 38.4 0 1 0 0-76.8H294.4a38.4 38.4 0 0 0-38.4 38.4z m380.928-294.4a57.3184 57.3184 0 0 1-9.728-32c0-11.84 3.5968-22.848 9.728-32H425.472c6.1312 9.152 9.728 20.16 9.728 32s-3.5968 22.848-9.728 32h211.456z m-73.2416-201.4592C593.6896 23.1808 666.4832 42.9952 691.2 51.2c12.9152 4.288 15.0912 13.7728 13.2864 23.424A127.552 127.552 0 0 0 665.6 166.4v64c0 70.6944 57.3056 128 128 128s128-57.3056 128-128v-64a127.5392 127.5392 0 0 0-38.6944-91.6096c-2.176-10.24-0.2944-20.48 13.0944-25.0368 31.2704-10.624 139.776-40.0384 140.8-117.7984 0-0.448-0.1024-0.8192-0.1152-1.2544 0.0128-0.3712 0.1152-0.7168 0.1152-1.1008a57.6 57.6 0 0 0-57.6-57.6h-384a57.6 57.6 0 0 0-57.6 57.6 57.472 57.472 0 0 0 26.0864 48.1408z"  horiz-adv-x="1062" />

    
    <glyph glyph-name="pxxxpllr" unicode="&#58890;" d="M940.521739-128H50.086957V228.864l419.049739 502.361043L797.384348 457.427478 367.927652-57.421913c-1.157565-1.380174-2.537739-2.493217-3.762087-3.795478H940.521739a33.391304 33.391304 0 1 0 0-66.782609zM826.490435 492.321391l-328.236522 273.808696 80.061217 95.98887c36.185043 43.375304 105.594435 45.100522 155.035827 3.86226l149.203478-124.460521c49.441391-41.238261 60.193391-109.83513 24.008348-153.210435l-80.072348-95.98887z"  horiz-adv-x="1024" />

    
    <glyph glyph-name="pxxxcx" unicode="&#58889;" d="M67.516484-128V896h665.926329L956.483516 669.966066V-128H67.516484z m751.807296 192.96211L681.173802 203.112088A274.161934 274.161934 0 0 1 731.428571 361.494505C731.428571 513.755429 607.997187 637.186813 455.736264 637.186813S180.043956 513.755429 180.043956 361.494505 303.475341 85.802198 455.736264 85.802198c52.505319 0 101.409758 14.943648 143.179956 40.419868L739.755604-14.606066c20.35622-20.35622 51.098725-22.606769 68.675517-5.029978l15.911384 15.922637c17.576791 17.576791 15.337495 48.319297-5.018725 68.675517zM455.736264 164.571429C346.978462 164.571429 258.813187 252.736703 258.813187 361.494505S346.978462 558.417582 455.736264 558.417582 652.659341 470.252308 652.659341 361.494505 564.494066 164.571429 455.736264 164.571429z"  horiz-adv-x="1024" />

    
    <glyph glyph-name="pxbrygl" unicode="&#58887;" d="M206.978723 765.276596h795.234043v-827.914894a65.361702 65.361702 0 0 0-65.361702-65.361702H163.404255a65.361702 65.361702 0 0 0-65.361702 65.361702v65.361702h21.787234a43.574468 43.574468 0 0 1 43.574468 43.574468v76.255319a43.574468 43.574468 0 0 1-43.574468 43.574469H98.042553V307.744681h21.787234a43.574468 43.574468 0 0 1 43.574468 43.574468v76.255319a43.574468 43.574468 0 0 1-43.574468 43.574468H98.042553V612.765957h21.787234a43.574468 43.574468 0 0 1 43.574468 43.574469v76.255319a43.574468 43.574468 0 0 1-43.574468 43.574468H98.042553V830.638298a65.361702 65.361702 0 0 0 65.361702 65.361702h773.446809c28.421447 0 52.354723-18.246809 61.363745-43.574468H206.978723a43.574468 43.574468 0 0 1 0-87.148936z m364.936171-174.297873C496.705362 590.978723 435.744681 527.577872 435.744681 449.361702s60.960681-141.617021 136.170213-141.617021S708.085106 371.145532 708.085106 449.361702s-60.960681 141.617021-136.170212 141.617021z m5.446808-490.212766h239.659575c-1.960851 170.430638-163.404255 151.835234-163.404256 151.835234-33.421617-60.503149-76.255319-54.228426-76.255319-54.228425V198.808511s-42.833702-6.307404-76.255319 54.468085c0 0-161.443404 18.682553-163.404255-152.510639h239.659574zM141.617021 699.914894v-21.787234a43.574468 43.574468 0 0 0-43.574468-43.574469H65.361702a43.574468 43.574468 0 0 0-43.574468 43.574469v21.787234a43.574468 43.574468 0 0 0 43.574468 43.574468h32.680851a43.574468 43.574468 0 0 0 43.574468-43.574468zM65.361702 438.468085h32.680851a43.574468 43.574468 0 0 0 43.574468-43.574468v-21.787234a43.574468 43.574468 0 0 0-43.574468-43.574468H65.361702a43.574468 43.574468 0 0 0-43.574468 43.574468v21.787234a43.574468 43.574468 0 0 0 43.574468 43.574468z m0-305.021276h32.680851a43.574468 43.574468 0 0 0 43.574468-43.574469v-21.787234a43.574468 43.574468 0 0 0-43.574468-43.574468H65.361702a43.574468 43.574468 0 0 0-43.574468 43.574468v21.787234a43.574468 43.574468 0 0 0 43.574468 43.574469z"  horiz-adv-x="1024" />

    
    <glyph glyph-name="pxbgl" unicode="&#58885;" d="M0-128V468.395604h1069.010989v-596.395604H0z m0 855.208791h622.456967L720.175824 896h348.835165v-348.835165H0V727.208791z"  horiz-adv-x="1069" />

    
    <glyph glyph-name="add" unicode="&#58886;" d="M859.61428833 427.45178603H555.45178603V731.61428833H468.54821397v-304.16250229H164.38571167v-86.90357207h304.16250229v-304.1625023h86.90357207V340.54821397h304.1625023z"  horiz-adv-x="1024" />

    
    <glyph glyph-name="bianzhisheshitongji" unicode="&#58901;" d="M168.328767 706.209315c0 11.811068 9.650849 21.461918 21.461918 21.461918h69.295342c11.811068 0 21.461918-9.650849 21.461918-21.461918v-125.404931c0-11.811068-9.650849-21.461918-21.461918-21.461918h-69.295342c-11.811068 0-21.461918 9.650849-21.461918 21.461918v125.404931zM722.453041 615.452055H329.601753C317.987068 615.452055 308.60274 624.850411 308.60274 636.493151s9.398356 21.041096 20.999013 21.041096h392.851288c11.614685 0 20.999014-9.398356 20.999014-21.041096s-9.398356-21.041096-20.999014-21.041096zM168.328767 509.825753c0 11.811068 9.650849 21.461918 21.461918 21.461918h69.295342c11.811068 0 21.461918-9.650849 21.461918-21.461918v-125.404931c0-11.811068-9.650849-21.461918-21.461918-21.461918h-69.295342c-11.811068 0-21.461918 9.650849-21.461918 21.461918v125.404931zM722.453041 419.068493H329.601753C317.987068 419.068493 308.60274 428.466849 308.60274 440.109589s9.398356 21.041096 20.999013 21.041096h392.851288c11.614685 0 20.999014-9.398356 20.999014-21.041096s-9.398356-21.041096-20.999014-21.041096zM168.328767 299.414795c0 11.811068 9.650849 21.461918 21.461918 21.461917h69.295342c11.811068 0 21.461918-9.650849 21.461918-21.461917v-125.404932c0-11.811068-9.650849-21.461918-21.461918-21.461918h-69.295342c-11.811068 0-21.461918 9.650849-21.461918 21.461918v125.404932zM539.998685 222.684932H315.672548a21.055123 21.055123 0 1 0 0 42.082191h224.326137a21.055123 21.055123 0 1 0 0-42.082191zM419.952219-99.945205H20.984986A20.914849 20.914849 0 0 0 0-79.086466V872.995068C0 884.497534 9.398356 896 20.984986 896h925.920439C958.492055 896 967.890411 886.671781 967.890411 875.14126v-411.381479c0-11.544548-9.398356-20.872767-20.984986-20.872767-11.614685 0-35.026411 9.328219-35.026411 20.872767V840.255123H56.011397v-884.441424h363.940822c11.600658 0 20.984986-23.369644 20.984986-34.900165 0-11.530521-9.398356-20.85874-20.984986-20.858739zM770.10411 110.872548V264.767123c-77.922192-8.037699-138.871233-74.008548-138.871233-153.894575C631.232877 25.585973 700.724603-43.835616 786.123397-43.835616c35.966247 0 70.052822 12.203836 97.60263 34.577534l-108.936767 108.81052a15.991233 15.991233 0 0 0-4.699178 11.32011zM785.534247 348.931507c-131.703233 0-238.465753-106.762521-238.465754-238.465754s106.762521-238.465753 238.465754-238.465753 238.465753 106.762521 238.465753 238.465753-106.762521 238.465753-238.465753 238.465754z m129.753424-369.98663a184.726795 184.726795 0 0 0-131.520876-54.524493c-102.582356 0-186.04537 83.463014-186.04537 186.045369s83.463014 186.04537 186.04537 186.04537c8.823233 0 15.949151-7.139945 15.94915-15.94915V117.05863l115.585754-115.585753a15.949151 15.949151 0 0 0 0-22.542028z"  horiz-adv-x="1024" />

    
    <glyph glyph-name="lingdaozhishuchaxun" unicode="&#58902;" d="M853.921684-128H170.078316C131.543579-128 101.052632-97.603368 101.052632-59.203368V588.8L409.263158 896h444.658526C892.456421 896 922.947368 865.603368 922.947368 827.203368v-886.406736C922.947368-97.603368 892.442947-128 853.921684-128z m0 955.203368H409.263158V691.2c0-55.996632-46.551579-102.4-102.736842-102.4H170.078316v-648.003368h683.843368V827.203368zM782.874947 53.490526l-101.672421 99.866948c29.049263 38.049684 38.736842 82.432 38.736842 128.40421 0 131.557053-108.126316 237.770105-242.06821 237.770105C343.915789 519.531789 235.789474 410.138947 235.789474 281.761684c0-128.404211 108.126316-233.013895 242.081684-237.770105 48.410947 0 95.205053 15.845053 130.721684 38.03621l101.658947-99.866947c8.084211-11.088842 24.212211-15.845053 35.516632-15.845053 11.290947 0 24.198737 4.756211 35.503158 15.845053 20.978526 20.614737 20.978526 57.074526 1.616842 71.343158zM485.928421 435.536842c46.807579 0 83.927579-36.459789 83.927579-82.432 0-45.972211-37.12-82.432-83.927579-82.432-46.794105 0-83.914105 36.459789-83.914105 82.432 0 45.972211 37.12 82.432 83.914105 82.432z m-145.246316-282.165895c0 30.127158 24.212211 95.124211 74.24 114.122106 19.375158-15.845053 45.190737-23.767579 71.006316-23.767579 25.829053 0 50.041263 9.512421 71.006316 23.781052 50.041263-19.024842 74.24-84.008421 74.24-114.122105h-290.492632zM573.089684 681.229474h208.195369c19.361684 0 33.886316 15.845053 33.886315 33.28C815.157895 733.520842 799.016421 747.789474 781.271579 747.789474H573.076211c-19.361684 0-33.886316-15.845053-33.886316-33.28 0-17.448421 14.524632-33.293474 33.886316-33.293474z m0-107.789474h208.195369c19.361684 0 33.886316 15.845053 33.886315 33.28C815.157895 625.731368 799.016421 640 781.271579 640H573.076211c-19.361684 0-33.886316-15.845053-33.886316-33.28 0-17.448421 14.524632-33.293474 33.886316-33.293474z"  horiz-adv-x="1024" />

    
    <glyph glyph-name="manage" unicode="&#58903;" d="M120.029405-57.427027c-27.993946 0-50.771027 20.244757-50.771027 45.083676V777.285189c0 24.866595 22.777081 45.111351 50.784865 45.111352h751.090162c27.993946 0 50.743351-20.230919 50.743352-45.111352v-103.908324c0-14.183784 25.267892-25.669189 39.382486-25.669189a25.6 25.6 0 0 1 25.558487 25.669189v117.76c0 53.164973-45.692541 96.435892-101.846487 96.435892H106.191568C50.037622 887.558919 4.317405 844.301838 4.317405 791.109189v-817.304216c0-53.164973 45.720216-96.408216 101.874163-96.408216h212.729081a25.6 25.6 0 0 1 25.544648 25.669189c0 14.183784-11.416216 39.507027-25.544648 39.507027H120.029405zM1041.60173-89.378595c-29.405405 138.572108-114.383568 234.551351-229.791135 265.907892 68.940108 32.435892 116.902054 102.538378 116.902054 183.849514 0 112.003459-90.845405 203.139459-202.502919 203.139459-111.671351 0-202.516757-91.136-202.516757-203.139459 0-81.338811 48.003459-151.455135 116.985081-183.891027-116.279351-31.577946-201.326703-128.539676-229.901838-268.550919a25.420108 25.420108 0 0 1 24.866595-30.52627c11.789838 0 22.361946 8.302703 24.811243 20.341621 30.097297 147.428324 132.040649 239.020973 266.004757 239.020973 132.815568 0 234.551351-90.707027 265.520432-236.73773a25.489297 25.489297 0 0 1 30.08346-19.594378 25.475459 25.475459 0 0 1 19.539027 30.180324zM574.408649 360.378811c0 83.954162 68.082162 152.243892 151.801081 152.243892 83.691243 0 151.787243-68.28973 151.787243-152.243892 0-83.968-68.082162-152.271568-151.773405-152.271568-83.718919 0-151.801081 68.303568-151.801082 152.271568zM195.736216 638.491676a25.392432 25.392432 0 0 1-25.350919-25.447784c0-14.059243 11.347027-25.433946 25.350919-25.433946h290.580757a25.392432 25.392432 0 0 1 25.364757 25.433946c0 14.059243-11.347027 25.447784-25.364757 25.447784H195.736216zM354.248649 479.384216H195.736216a25.392432 25.392432 0 0 1-25.350919-25.433946c0-14.073081 11.347027-25.447784 25.350919-25.447784H354.248649a25.392432 25.392432 0 0 1 25.350919 25.433946c0 14.073081-11.347027 25.447784-25.350919 25.447784zM274.957838 269.395027a25.392432 25.392432 0 0 1 25.364757 25.447784c0 14.059243-11.347027 25.433946-25.364757 25.433946h-79.23546a25.392432 25.392432 0 0 1-25.350919-25.433946c0-14.059243 11.347027-25.447784 25.350919-25.447784h79.23546z"  horiz-adv-x="1051" />

    
    <glyph glyph-name="position_management" unicode="&#58895;" d="M628.180699 827.728457l-49.9712-69.368686c-2.56-3.042743-11.307886-7.358171-16.106057-7.358171h-100.205714c-4.798171 0-13.560686 4.315429-15.959771 7.153371L395.820471 827.728457h232.360228z m-87.274057-268.682971a7.460571 7.460571 0 0 0 3.466972-1.565257l134.802285-440.875886a12.668343 12.668343 0 0 0-1.667657-6.231772L512.000585-57.519543 346.697728 110.16777100000002c-1.024 1.272686-2.033371 4.768914-2.121143 5.339429l135.0656 441.973029a7.416686 7.416686 0 0 0 3.437714 1.565257h57.826743zM669.696585 896H354.304585C334.658414 896 318.098871 887.325257 310.023899 872.784457c-8.0896-14.555429-6.290286-32.416914 4.798172-47.8208l77.238857-107.242057c14.599314-20.2752 43.973486-34.991543 69.8368-34.991543h100.205714c25.863314 0 55.237486 14.716343 69.8368 34.991543l77.238857 107.242057c11.088457 15.403886 12.873143 33.28 4.798172 47.8208C705.902299 887.325257 689.342757 896 669.696585 896z m-128.775314-268.6976h-57.841372c-29.725257 0-58.397257-20.450743-66.691657-47.557486L280.722871 135.840914c-7.416686-24.327314 0.4096-55.3984 18.6368-73.888914l169.691428-172.149029A60.606171 60.606171 0 0 1 512.000585-128a60.606171 60.606171 0 0 1 42.934857 17.802971l169.706057 172.149029c18.2272 18.490514 26.053486 49.576229 18.622172 73.888914l-135.650743 443.904c-8.279771 27.121371-36.951771 47.557486-66.691657 47.557486z"  horiz-adv-x="1024" />

    
    <glyph glyph-name="award_management" unicode="&#58896;" d="M357.703111 428.344889l68.736 36.124444 68.736-36.124444a25.927111 25.927111 0 0 1 37.617778 27.249778l-13.198222 77.44 55.779555 54.286222a26.183111 26.183111 0 0 1 6.485334 26.609778 25.514667 25.514667 0 0 1-21.617778 17.521777l-76.088889 9.742223-34.588445 69.646222A25.287111 25.287111 0 0 1 426.439111 725.333333c-9.841778 0-18.830222-5.632-23.125333-14.506666l-33.28-69.632-76.956445-11.249778a25.514667 25.514667 0 0 1-21.617777-17.521778 25.969778 25.969778 0 0 1 6.698666-26.609778l55.125334-52.778666-13.184-76.572445a25.969778 25.969778 0 0 1 25.500444-31.573333c4.266667 0.071111 8.433778 1.28 12.103111 3.456z m-24.647111 164.608l51.228444 7.352889a25.941333 25.941333 0 0 1 19.242667 14.065778l22.912 46.506666 22.912-46.293333c3.712-7.694222 11.008-13.041778 19.456-14.279111l51.015111-7.352889-36.977778-36.124445a25.742222 25.742222 0 0 1-7.338666-23.793777l8.647111-50.830223-45.824 24.874667a25.272889 25.272889 0 0 1-11.889778 2.816 26.780444 26.780444 0 0 1-12.103111-2.816l-45.610667-24.007111 8.647111 50.830222a25.742222 25.742222 0 0 1-7.352888 22.926222l-36.963556 36.124445z m208.597333-563.911111H311.224889a21.617778 21.617778 0 0 1 0-43.264h230.428444a21.617778 21.617778 0 0 1 0 43.264zM988.145778-71.08266700000001h-97.621334c104.263111 70.556444 141.866667 204.928 89.031112 318.250667-52.807111 113.308444-180.679111 172.643556-302.848 140.515556V413.297778a127.857778 127.857778 0 0 1 67.299555 34.375111l49.351111 48.881778a90.951111 90.951111 0 0 1 27.477334 65.322666v112.924445c0 16.995556-6.826667 33.28-19.015112 45.297778a65.379556 65.379556 0 0 1-45.909333 18.759111h-79.217778V767.886222a58.012444 58.012444 0 0 1 52.992 27.392 56.334222 56.334222 0 0 1 0 59.008 58.012444 58.012444 0 0 1-52.977777 27.377778H200.533333a58.012444 58.012444 0 0 1-52.963555-27.377778 56.334222 56.334222 0 0 1 0-59.008 58.012444 58.012444 0 0 1 52.977778-27.392v-28.387555H121.130667c-35.854222 0-64.924444-28.672-64.924445-64.042667v-112.924444a91.377778 91.377778 0 0 1 27.477334-65.336889l49.564444-49.521778a126.336 126.336 0 0 1 67.313778-34.375111v-37.361778c0.071111-68.736 47.687111-128.554667 115.342222-144.952889v-58.268444h-50.417778c-11.946667 0-21.646222-9.557333-21.646222-21.347556v-51.669333h-79.416889c-35.868444 0-64.938667-28.672-64.938667-64.042667v-106.737778H35.854222c-11.946667 0-21.632-9.557333-21.632-21.347555 0-11.790222 9.685333-21.333333 21.632-21.347556H988.16c11.946667 0 21.632 9.557333 21.632 21.347556 0 11.790222-9.685333 21.333333-21.632 21.347555zM733.411556 215.40977799999996l-14.293334 3.2 34.631111 34.147555 49.777778-10.666666-37.447111-170.780445a64.924444 64.924444 0 0 1-36.352 25.187556l20.337778 93.496889c1.223111 5.546667 0.142222 11.363556-2.986667 16.128a21.646222 21.646222 0 0 1-13.667555 9.287111z m230.058666-73.443556c-0.312889-105.955556-79.36-195.655111-185.699555-210.702222v50.602667a21.504 21.504 0 0 1 16.455111 16.213333L850.488889 254.26488900000004c1.223111 5.546667 0.142222 11.349333-2.986667 16.113778a21.646222 21.646222 0 0 1-13.681778 9.287111l-82.446222 17.720889a21.845333 21.845333 0 0 1-19.911111-5.774223l-70.997333-70.016a21.148444 21.148444 0 0 1-5.532445-21.233777c2.275556-7.537778 8.547556-13.240889 16.355556-14.848l31.815111-6.826667-17.962667-78.990222h-51.726222v51.669333c0 11.790222-9.685333 21.333333-21.646222 21.333333H561.351111v58.282667c54.983111 13.269333 97.891556 55.68 111.232 109.937778a217.415111 217.415111 0 0 0 198.613333-24.206222c58.126222-39.850667 92.629333-105.358222 92.273778-175.175111v0.426666zM756.124444 697.031111c11.946667 0 21.646222-9.557333 21.646223-21.347555v-112.924445a48.554667 48.554667 0 0 0-14.933334-35.228444l-49.351111-48.682667a81.834667 81.834667 0 0 0-36.778666-21.333333v238.648889l79.416888 0.853333zM186.055111 825.102222c0.128 7.822222 6.584889 14.08 14.506667 14.08H676.693333c5.546667 0.682667 11.022222-1.863111 14.008889-6.542222 3.000889-4.664889 3.000889-10.624 0-15.303111-2.986667-4.664889-8.448-7.210667-14.008889-6.542222H200.533333a14.421333 14.421333 0 0 0-14.492444 13.454222v0.853333z m-21.632-346.268444l-50.005333 47.829333a49.408 49.408 0 0 0-14.933334 35.214222v112.924445c0 11.804444 9.699556 21.361778 21.646223 21.361778h79.431111v-238.890667a82.958222 82.958222 0 0 0-36.792889 20.707555l0.654222 0.853334z m80.071111-102.044445V767.886222h389.575111v-391.950222c0-28.302222-11.406222-55.466667-31.701333-75.477333a108.970667 108.970667 0 0 0-76.515556-31.260445H352.711111a108.984889 108.984889 0 0 0-76.942222 31.032889 106.012444 106.012444 0 0 0-31.928889 75.704889l0.654222 0.853333z m115.356445-149.432889h158.862222v-53.788444H359.196444l0.654223 53.788444z m-72.064-96.483555h302.990222v-31.175111H287.786667v31.175111z m-145.009778-95.217778c0 11.804444 9.685333 21.347556 21.646222 21.347556h548.408889c11.960889 0 21.660444-9.557333 21.660444-21.333334v-106.752H142.776889v106.737778z"  horiz-adv-x="1024" />

    
    <glyph glyph-name="document" unicode="&#58898;" d="M302.211657 896H54.944914C24.605257 896 0 871.862857 0 842.108343v-916.202057C0-103.86285699999996 24.605257-128 54.944914-128H302.226286c30.339657 0 54.944914 24.137143 54.944914 53.906286V842.093714C357.156571 871.862857 332.551314 896 302.226286 896z m-123.640686-916.202057c-53.101714 0-96.1536 42.232686-96.1536 94.3104s43.066514 94.3104 96.1536 94.3104c53.101714 0 96.1536-42.232686 96.1536-94.3104s-43.051886-94.3104-96.1536-94.3104z m123.640686 377.256228c0-29.769143-24.605257-53.891657-54.959543-53.891657h-137.362285c-30.339657 0-54.944914 24.137143-54.944915 53.891657V788.202057c0 29.769143 24.605257 53.906286 54.944915 53.906286h137.362285c30.354286 0 54.959543-24.137143 54.959543-53.906286v-431.147886zM109.889829 734.325029h137.362285V788.187429h-137.362285v-53.891658z m0-215.595886h137.362285v53.906286h-137.362285v-53.906286z m0 107.812571h137.362285v53.877029h-137.362285v-53.891657z m384.629028 0h137.362286v53.877029h-137.362286v-53.891657z m384.629029 107.768686h137.362285V788.202057h-137.362285v-53.891657z m0-107.783314h137.362285v53.891657h-137.362285v-53.891657zM1071.455086 896H824.188343c-30.339657 0-54.944914-24.137143-54.944914-53.891657v-916.202057c0-29.769143 24.605257-53.906286 54.944914-53.906286h247.266743C1101.794743-128 1126.4-103.86285699999996 1126.4-74.09371399999998V842.093714C1126.4 871.862857 1101.794743 896 1071.455086 896z m-123.626057-916.202057c-53.101714 0-96.168229 42.232686-96.168229 94.3104s43.066514 94.3104 96.168229 94.3104 96.1536-42.232686 96.1536-94.3104-43.066514-94.3104-96.1536-94.3104z m123.626057 377.256228c0-29.769143-24.605257-53.891657-54.944915-53.891657h-137.362285c-30.354286 0-54.959543 24.137143-54.959543 53.891657V788.202057c0 29.769143 24.605257 53.906286 54.944914 53.906286h137.376914c30.339657 0 54.944914-24.137143 54.944915-53.906286v-431.147886zM494.518857 518.729143h137.362286v53.906286h-137.362286v-53.906286z m0 215.581257h137.362286V788.202057h-137.362286v-53.891657zM686.826057 896H439.588571c-30.339657 0-54.944914-24.137143-54.944914-53.891657v-916.202057c0-29.769143 24.605257-53.906286 54.944914-53.906286h247.252115c30.354286 0 54.944914 24.137143 54.944914 53.906286V842.093714C741.770971 871.862857 717.180343 896 686.826057 896zM563.2-20.202056999999968c-53.101714 0-96.1536 42.232686-96.1536 94.3104s43.066514 94.3104 96.1536 94.3104c53.101714 0 96.1536-42.232686 96.1536-94.3104s-43.051886-94.3104-96.1536-94.3104z m123.626057 377.256228c0-29.769143-24.605257-53.891657-54.944914-53.891657h-137.362286c-30.339657 0-54.944914 24.137143-54.944914 53.891657V788.202057c0 29.769143 24.605257 53.906286 54.944914 53.906286h137.362286c30.339657 0 54.944914-24.137143 54.944914-53.906286v-431.147886zM879.147886 518.729143h137.362285v53.906286h-137.362285v-53.906286z"  horiz-adv-x="1126" />

    
    <glyph glyph-name="record_management" unicode="&#58900;" d="M609.976246 316.538957a260.628445 260.628445 0 0 1-72.82687-61.030392c-8.465066 11.373225-12.014932 25.026557-8.355839 38.707195a78.097056 78.097056 0 0 0 10.717865 40.932688l1.10592 1.870507 1.338026 1.706666a233.116982 233.116982 0 0 1 41.997648 85.565429l2.648746 10.349225 8.055466 6.990506c19.319464 16.738984 31.716689 40.550395 34.652155 66.641911 0.395947 7.072426 0.49152 13.148158 0.341334 18.254504H606.890593l14.322345 44.578127c9.516372 29.627729 11.796478 93.375134 1.2288 139.509742-12.274345 53.60298-35.334822 75.707723-75.584844 67.979937l-25.804796-4.956159-11.386879 23.674877c-4.942506 10.267305-35.143675 23.920637-68.007244 23.592957-42.134181-0.436907-78.902603-21.203624-103.10996-65.672525a229.020983 229.020983 0 0 1-17.967784-184.265362l3.6864-11.100159-3.8912-11.031891c-2.12992-6.034773-5.734399-11.468798-10.704212-15.701332a125.52873 125.52873 0 0 1-0.259413-1.993386 119.848944 119.848944 0 0 1 17.039358-66.409804c3.741013-3.4816 7.509332-6.007466 11.878398-8.028159l15.551145-7.222613 3.495253-16.779944a218.275811 218.275811 0 0 1 44.01834-93.033801l6.280533-7.755092 1.119573-9.925972c4.341759-38.666235-14.923091-75.93983-49.288527-93.252255l-3.973119-2.007039-4.355413-0.914774C225.703231 199.36606600000005 129.706657 133.54335500000002 129.706657 79.48981600000002v-60.866552c0-41.588048 133.966489-70.587724 338.711848-70.587724h52.00554a260.846899 260.846899 0 0 1 66.573644-69.058551c-31.662076-0.136533-63.747405-0.16384-105.949853-0.136533H387.085609l2.239146 2.307413c-69.823137 2.58048-130.662383 8.861012-180.087442 19.55157C116.681378-79.25747000000001 61.439999-43.349207999999976 61.439999 18.63691700000004v60.866552c0 95.901001 119.166277 178.763069 270.199431 211.954318 4.751359 3.426986 8.014506 8.820052 9.093119 15.086932a286.364975 286.364975 0 0 0-46.557861 96.925 118.292464 118.292464 0 0 0-19.019091 15.974398l-2.321066 2.402986-1.815893 2.798933c-21.176317 32.672422-31.457276 71.243084-29.764263 110.619292l0.177493 2.348373c1.570133 13.858131 3.945813 24.084477 8.342186 32.413009a297.096494 297.096494 0 0 0 29.081596 218.316771C314.982365 854.712326 374.729344 888.490668 440.948002 889.146028c45.192527 0.464213 89.429321-15.264425 114.769905-40.809808 70.410231 3.822933 115.479878-44.864847 133.256515-122.497691 11.550718-50.476367 10.977279-114.824518 1.829547-157.982699 6.253226-14.472531 8.301226-34.993489 6.594559-64.389111l-0.136534-1.583786a171.950057 171.950057 0 0 0-49.91658-104.46164 301.79324 301.79324 0 0 0-37.382821-80.895989zM933.846923-33.69630299999994L824.661231 63.31061799999998l27.511463 27.183783 5.652479-5.584213c3.31776-3.290453 7.468372-5.679786 12.028585-6.894932a27.12917 27.12917 0 0 1 26.036903 6.744745c5.079039 4.983466 7.823359 11.632638 7.796052 18.746025a26.446503 26.446503 0 0 1-7.946238 18.841597l-97.594014 96.187721a27.197436 27.197436 0 0 1-38.079142 0.150186c-5.051733-4.942506-7.809706-11.632638-7.782399-18.759677 0.027307-7.113386 2.839893-13.803518 7.946239-18.841598l5.638826-5.584212-91.135988-89.920842-5.652479 5.597866a27.17013 27.17013 0 0 1-38.065488 0.150187 26.43285 26.43285 0 0 1 0.150186-37.601275l97.594014-96.228681c3.304106-3.2768 7.454719-5.666133 12.014932-6.881279a27.142823 27.142823 0 0 1 26.050556 6.744746 26.364583 26.364583 0 0 1-0.16384 37.587622l-5.638826 5.597866 28.002983 27.647996 100.433907-110.045852A210.561679 210.561679 0 0 0 757.759906-127.999863C640.887388-127.999863 546.133268-33.24574299999995 546.133268 83.62677499999995 546.133268 200.49929299999997 640.887388 295.253413 757.759906 295.253413 874.632424 295.253413 969.386545 200.49929299999997 969.386545 83.62677499999995c0-43.417594-13.120852-83.749536-35.539622-117.323078zM530.008683 18.554996999999958l-34.242555-17.667411a53.862393 53.862393 0 0 0-49.3841 0l-34.242556 17.667411c-23.07413 11.892052-34.775035 38.898341-27.852796 64.266231l34.829649 126.620997c-0.805547 1.6384-1.501866 3.2768-2.08896 5.010773l-9.502719 27.825489a40.591355 40.591355 0 0 0 5.106346 36.222289A39.171408 39.171408 0 0 0 444.620748 295.253413h51.363833a39.048528 39.048528 0 0 0 31.989756-16.752637 40.413861 40.413861 0 0 0 5.092693-36.222289l-9.502719-27.825489a43.827194 43.827194 0 0 0-1.174187-2.99008l35.375782-128.64169c6.976852-25.313277-4.669439-52.37418-27.757223-64.266231zM436.906616 267.94674999999995l13.653331-40.959994h40.959995l13.653331 40.959994h-68.266657z m89.156254-209.442105l-38.911994 147.551554h-32.139943L416.112592 58.50464499999998c-1.829546-6.772052 1.174187-14.008318 7.086079-17.189544l41.506128-22.364157a13.339305 13.339305 0 0 1 12.697598 0l41.506128 22.364157c5.911893 3.181226 8.915625 10.417492 7.154345 17.189544z"  horiz-adv-x="1024" />

    
    <glyph glyph-name="wenjianjia" unicode="&#58955;" d="M861.9 52.5c0-31.1-25.2-56.2-56.2-56.2H103.5l98.3 454.2c0 31 25 56.2 56.1 56.2h646.2c31 0 56.1-25.2 56.1-56.2l-98.3-398zM215.8 548.9h632v55.2c0 31-25.2 56.2-56.2 56.2h-337v50.9c0 31-25.2 56.2-56.2 56.2H117.6c-31 0-56.2-25.2-56.2-56.2v-658.6l98.2 440.2c0 30.9 25.2 56.1 56.2 56.1z m0 0"  horiz-adv-x="1024" />

    
    <glyph glyph-name="renzhi" unicode="&#58893;" d="M490.057143 369.371429c137.508571 0 248.685714 118.491429 248.685714 263.314285S627.565714 896 490.057143 896 241.371429 777.508571 241.371429 632.685714s111.177143-263.314286 248.685714-263.314285z m0 453.485714c96.548571 0 175.542857-84.845714 175.542857-190.171429s-78.994286-190.171429-175.542857-190.171428-175.542857 84.845714-175.542857 190.171428S393.508571 822.857143 490.057143 822.857143zM716.8 310.857143H621.714286l-77.531429-165.302857-5.851428 67.291428 16.091428 24.868572 24.868572 39.497143-17.554286 33.645714h-46.811429l-2.925714-5.851429-4.388571 5.851429H460.8l-19.017143-33.645714 24.868572-39.497143 16.091428-24.868572-5.851428-67.291428L402.285714 310.857143h-96.548571C165.302857 305.005714 51.2 192.365714 51.2 56.32V-40.228571c0-48.274286 42.422857-87.771429 93.622857-87.771429h734.354286c51.2 0 93.622857 39.497143 93.622857 89.234286v96.548571c0 134.582857-114.102857 247.222857-256 253.074286zM465.188571-54.857143h-321.828571c-10.24 0-19.017143 8.777143-19.017143 16.091429v96.548571c0 95.085714 80.457143 175.542857 184.32 181.394286h46.811429l109.714285-239.908572V-54.857143zM899.657143-38.765714c0-7.314286-8.777143-16.091429-20.48-16.091429h-321.828572v52.662857L693.394286 237.714286h21.942857c103.862857-5.851429 184.32-86.308571 184.32-181.394286v-95.085714z"  horiz-adv-x="1024" />

    
    <glyph glyph-name="dangweihui" unicode="&#58894;" d="M1088.365714 622.445714c16.091429 27.794286 26.331429 59.977143 24.868572 95.085715C1111.771429 812.617143 1034.24 890.148571 939.154286 891.611429 839.68 893.074286 757.76 811.154286 760.685714 710.217143c0-32.182857 10.24-62.902857 26.331429-89.234286-16.091429-23.405714-24.868571-51.2-24.868572-81.92v-70.217143c-8.777143 2.925714-17.554286 4.388571-26.331428 4.388572v65.828571c0 30.72-8.777143 58.514286-26.331429 81.92 17.554286 27.794286 26.331429 59.977143 26.331429 95.085714-2.925714 96.548571-80.457143 174.08-175.542857 175.542858C460.8 893.074286 378.88 811.154286 380.342857 710.217143c0-32.182857 10.24-62.902857 26.331429-89.234286-16.091429-23.405714-26.331429-51.2-26.331429-81.92v-65.828571c-8.777143 0-17.554286-1.462857-26.331428-4.388572v70.217143c0 30.72-8.777143 58.514286-24.868572 81.92 16.091429 27.794286 26.331429 59.977143 24.868572 95.085714C352.548571 812.617143 276.48 890.148571 181.394286 891.611429 81.92 893.074286 0 811.154286 1.462857 710.217143c0-32.182857 10.24-62.902857 26.331429-89.234286C11.702857 597.577143 1.462857 569.782857 1.462857 539.062857v-178.468571c0-38.034286 14.628571-73.142857 40.96-100.937143L207.725714 91.428571v-108.251428c0-59.977143 48.274286-108.251429 108.251429-108.251429h67.291428c21.942857 0 43.885714 7.314286 61.44 19.017143 17.554286-11.702857 39.497143-19.017143 62.902858-19.017143 17.554286 0 33.645714 5.851429 48.274285 13.165715 16.091429-8.777143 35.108571-14.628571 55.588572-13.165715 21.942857 0 40.96 7.314286 57.051428 19.017143 17.554286-11.702857 38.034286-19.017143 61.44-19.017143h67.291429c59.977143 0 108.251429 48.274286 108.251428 108.251429V91.428571l165.302858 168.228572c26.331429 26.331429 40.96 62.902857 40.96 100.937143V540.525714c1.462857 30.72-7.314286 58.514286-23.405715 81.92zM418.377143-15.36c0-13.165714-7.314286-24.868571-17.554286-30.72-4.388571-2.925714-11.702857-4.388571-17.554286-4.388571h-67.291428c-19.017143 0-35.108571 16.091429-35.108572 35.108571v109.714286c0 19.017143-7.314286 36.571429-20.48 49.737143L93.622857 312.32C80.457143 325.485714 73.142857 343.04 73.142857 362.057143V540.525714c0 8.777143 1.462857 17.554286 5.851429 26.331429 10.24 24.868571 35.108571 42.422857 64.365714 42.422857H175.542857c-40.96 1.462857-74.605714 24.868571-92.16 59.977143-5.851429 13.165714-10.24 27.794286-10.24 42.422857-1.462857 58.514286 46.811429 106.788571 105.325714 106.788571 55.588571-1.462857 100.937143-46.811429 100.937143-102.4 0-16.091429-2.925714-32.182857-10.24-45.348571-16.091429-35.108571-52.662857-59.977143-93.622857-59.977143h33.645714c29.257143 0 54.125714-17.554286 64.365715-43.885714 2.925714-7.314286 4.388571-17.554286 4.388571-26.331429v-179.931428c0-19.017143 7.314286-36.571429 20.48-49.737143l45.348572-45.348572 51.2-51.2 1.462857-1.462857c13.165714-13.165714 20.48-30.72 20.48-49.737143v-178.468571z m119.954286 0c0-19.017143-14.628571-35.108571-32.182858-35.108571-7.314286 0-13.165714 1.462857-17.554285 4.388571-10.24 5.851429-17.554286 17.554286-17.554286 30.72V227.474286c0 2.925714 0 5.851429 1.462857 10.24 2.925714 10.24 8.777143 17.554286 17.554286 21.942857 4.388571 2.925714 10.24 4.388571 16.091428 2.925714 4.388571 0 10.24-1.462857 13.165715-2.925714 11.702857-5.851429 19.017143-17.554286 19.017143-32.182857v-242.834286z m103.862857 0c0-13.165714-7.314286-24.868571-16.091429-30.72-4.388571-2.925714-10.24-4.388571-16.091428-5.851429h-2.925715c-17.554286 1.462857-32.182857 16.091429-32.182857 35.108572V227.474286c0 13.165714 7.314286 26.331429 19.017143 30.72 4.388571 1.462857 8.777143 2.925714 13.165714 2.925714h2.925715c4.388571 0 10.24-1.462857 14.628571-2.925714 8.777143-4.388571 14.628571-13.165714 17.554286-21.942857 1.462857-2.925714 1.462857-5.851429 1.462857-10.24v-241.371429zM383.268571 331.337143c-10.24 1.462857-29.257143 14.628571-29.257142 30.72v10.24c2.925714 20.48 17.554286 27.794286 30.72 27.794286H453.485714v138.971428c0 8.777143 1.462857 17.554286 5.851429 26.331429 10.24 24.868571 35.108571 42.422857 64.365714 42.422857H555.885714c-40.96 1.462857-74.605714 24.868571-92.16 59.977143-5.851429 13.165714-10.24 26.331429-10.24 42.422857-1.462857 58.514286 46.811429 106.788571 105.325715 106.788571 55.588571-1.462857 100.937143-46.811429 100.937142-102.4 0-16.091429-2.925714-32.182857-10.24-45.348571-16.091429-35.108571-52.662857-59.977143-93.622857-59.977143h35.108572c29.257143 0 52.662857-17.554286 64.365714-42.422857 2.925714-8.777143 4.388571-17.554286 4.388571-26.331429v-138.971428h68.754286c13.165714 0 24.868571-7.314286 30.72-19.017143 2.925714-4.388571 4.388571-10.24 2.925714-16.091429 0-19.017143-16.091429-32.182857-33.645714-33.645714H383.268571zM1038.628571 362.057143c0-19.017143-7.314286-36.571429-20.48-49.737143L852.845714 144.091429c-13.165714-13.165714-20.48-30.72-20.48-49.737143v-109.714286c0-19.017143-16.091429-35.108571-35.108571-35.108571h-67.291429c-7.314286 0-13.165714 1.462857-17.554285 5.851428-10.24 5.851429-16.091429 17.554286-16.091429 30.72V164.571429c0 19.017143 7.314286 36.571429 20.48 49.737142l51.2 52.662858 45.348571 45.348571c13.165714 13.165714 20.48 30.72 20.48 49.737143V540.525714c0 8.777143 1.462857 17.554286 4.388572 26.331429 10.24 24.868571 35.108571 43.885714 64.365714 43.885714h32.182857c-40.96 1.462857-74.605714 24.868571-90.697143 59.977143-5.851429 13.165714-10.24 27.794286-10.24 42.422857-1.462857 58.514286 46.811429 106.788571 105.325715 106.788572 55.588571-1.462857 100.937143-46.811429 100.937143-102.4 0-16.091429-2.925714-32.182857-10.24-45.348572-16.091429-35.108571-52.662857-59.977143-93.622858-59.977143h35.108572c29.257143 0 52.662857-17.554286 64.365714-42.422857 2.925714-8.777143 5.851429-17.554286 5.851429-26.331428v-181.394286z"  horiz-adv-x="1113" />

    
    <glyph glyph-name="richangguanliyudengji" unicode="&#58881;" d="M949.356169 258.235493l-94.236845 94.280113a33.561239 33.561239 0 0 1-20.970366 9.749633 32.65262 32.65262 0 0 1-25.960564-9.490028L551.943211 96.486761a30.907493 30.907493 0 0 1-9.100619-21.489578L540.837859-24.042366a31.700732 31.700732 0 0 1 9.115042-22.729916c5.869972-5.869972 13.845634-9.115042 22.095324-9.115042h0.490367l99.227042 1.745127a30.647887 30.647887 0 0 1 21.475155 9.115042l256.11538 256.288451a33.171831 33.171831 0 0 1 0 46.959774zM656.218141 1.802817l-58.555493-1.08169 1.211493 58.339155 230.760563 231.193239L886.978704 232.851831 656.218141 1.802817z m115.380282 497.577465c0 19.888676-17.047437 36.056338-38.017803 36.056338H261.559887C240.589521 535.43662 223.542085 519.268958 223.542085 499.380282s17.047437-36.056338 38.017802-36.056338h472.020733c20.710761 0 37.758197 16.167662 38.017803 36.056338zM261.156056 362.366197C240.416451 362.366197 223.542085 346.198535 223.542085 326.309859s16.874366-36.056338 37.613971-36.056338h184.37769c20.609803 0 37.498592 16.167662 37.613972 36.056338 0 19.888676-16.874366 36.056338-37.613972 36.056338H261.156056z m472.424564 331.71831H261.559887C240.589521 694.084507 223.542085 677.916845 223.542085 658.028169s17.047437-36.056338 38.017802-36.056338h472.020733c20.840563 0 37.888 16.167662 38.017803 36.056338 0 19.888676-17.047437 36.056338-38.017803 36.056338zM459.278423-51.300958H143.122028s-0.144225 0.144225-0.144225 0V819.171155s0.144225 0.129803 0 0.129803h737.885746s0.144225-0.144225 0.144226 0v-455.752113c0-21.229972 17.422423-38.363944 39.041802-38.363944 21.604958 0 39.041803 17.133972 39.041803 38.363944v455.752113C959.09138 861.616676 924.073465 896 880.993352 896H142.992225C99.912113 896 64.894197 861.616676 64.894197 819.300958v-870.601916C64.894197-93.616676 99.912113-128 142.992225-128h316.286198c21.604958 0 39.041803 17.133972 39.041802 38.363944 0 21.201127-17.436845 38.335099-39.041802 38.335098z"  horiz-adv-x="1024" />

    
    <glyph glyph-name="chubugoutong" unicode="&#58882;" d="M498.161371 794.8288v14.043429c0 48.040229 38.765714 87.127771 86.440229 87.127771h352.958171C985.234286 896 1024 856.912457 1024 808.886857v-255.063771c0-48.0256-38.765714-87.113143-86.440229-87.113143H794.477714l-178.176-86.513372c-4.066743-2.048-8.513829-3.028114-12.960914-3.028114-6.9632 0-13.809371 2.428343-19.456 7.138743a30.705371 30.705371 0 0 0-9.479314 31.597714l14.657828 50.805029h-11.644343c-3.584 0-7.021714 0.629029-10.196114 1.784686a249.885257 249.885257 0 0 0-71.182628-77.458286l89.058742-46.621257c74.415543-38.955886 120.641829-115.082971 120.641829-198.392686v-152.956343C705.492114-73.698743 650.678857-128 583.387429-128H122.104686C54.813257-128 0-73.698743 0-7.050971v151.405714c0 81.027657 44.295314 155.940571 115.565714 195.613257l90.024229 50.234514a250.294857 250.294857 0 0 0-62.069029 62.317715A245.525943 245.525943 0 0 0 99.474286 593.159314c0 25.717029 3.949714 50.848914 11.498057 74.678857 0.468114 3.452343 1.609143 6.846171 3.408457 10.0352a247.252114 247.252114 0 0 0 79.111314 109.114515c59.786971 47.469714 137.713371 64.965486 214.074515 48.186514a247.486171 247.486171 0 0 0 90.594742-40.330971z m51.829029-50.029714a243.551086 243.551086 0 0 0 44.412343-93.769143c9.654857-42.247314 8.835657-84.216686-2.223543-123.816229H629.028571a29.842286 29.842286 0 0 0 23.990858-12.112457c5.661257-7.606857 7.460571-17.408 4.827428-26.624l-7.094857-24.429714 123.655314 60.123428c4.081371 1.9456 8.528457 3.042743 13.092572 3.042743H937.545143c14.526171 0 26.4192 11.966171 26.4192 26.624V808.872229c0 14.628571-11.893029 26.624-26.4192 26.624H584.6016c-14.526171 0-26.4192-11.995429-26.4192-26.624v-43.3152c0-8.045714-3.115886-15.36-8.192-20.772572z m-284.379429-812.865829l32.446172 298.101029c0.058514 0.526629 0.131657 1.053257 0.219428 1.565257a60.372114 60.372114 0 0 0-7.68 29.520457c0 33.850514 27.969829 61.44 62.273829 61.44 34.304 0 62.2592-27.589486 62.2592-61.44 0-10.181486-2.530743-19.792457-6.992457-28.2624v-0.087771l32.402286-300.836572h142.848c34.011429 0 61.586286 27.326171 61.586285 61.015772V145.905371c0 61.1328-33.879771 116.750629-88.444343 145.408L418.084571 363.812571a30.047086 30.047086 0 0 0-16.091428 28.0576c0.599771 11.615086 7.9872 21.942857 19.002514 26.243658 87.361829 34.757486 135.285029 127.063771 114.102857 219.604114-1.404343 6.144-3.130514 12.1856-5.149257 18.080914a168.462629 168.462629 0 0 0-80.618057-20.436114c-32.826514 0-64.073143 9.245257-90.8288 26.448457-34.289371-33.236114-81.334857-52.545829-131.072-52.545829-22.586514 0-44.7488 3.949714-65.536 11.556572a189.118171 189.118171 0 0 1-2.048-27.691886c0-77.326629 46.840686-145.993143 119.325257-174.8992 10.766629-4.315429 18.139429-14.379886 18.870857-25.892571a29.871543 29.871543 0 0 0-15.36-28.042972l-137.464685-76.5952a164.278857 164.278857 0 0 1-84.699429-143.36v-151.405714c0-33.6896 27.574857-61.001143 61.586286-61.001143h143.506285z m48.713143 0h77.458286l-28.920686 268.536686a63.136914 63.136914 0 0 0-19.324343-0.1024l-29.213257-268.434286z m-134.729143 745.0624a127.853714 127.853714 0 0 1 47.835429-9.216c40.740571 0 78.921143 19.309714 102.136686 51.726629 5.12 7.138743 13.370514 11.819886 22.381714 12.522057a31.041829 31.041829 0 0 0 24.312686-8.543086 104.696686 104.696686 0 0 1 73.186743-29.476571 105.618286 105.618286 0 0 1 52.560457 13.897143 186.543543 186.543543 0 0 1-107.885715 68.754285 200.704 200.704 0 0 1-43.680914 4.798172c-43.446857 0-85.313829-14.262857-119.310628-41.237943a188.152686 188.152686 0 0 1-51.536458-63.224686z m173.275429-401.6128a14.336 14.336 0 0 1-14.467657-14.262857c0-7.899429 6.4512-14.262857 14.467657-14.262857a14.336 14.336 0 0 1 14.453029 14.262857 14.336 14.336 0 0 1-14.453029 14.262857z m190.1568-103.0144h-62.0544c-13.370514 0-24.327314 12.288-24.327314 27.311543 0 15.023543 10.9568 27.311543 24.327314 27.311543h62.0544c13.370514 0 24.327314-12.288 24.327314-27.311543 0-15.023543-10.9568-27.311543-24.327314-27.311543z m93.520457 505.183086c0 15.067429 12.3904 27.296914 27.662629 27.296914 15.286857 0 27.677257-12.214857 27.677257-27.296914 0-15.082057-12.3904-27.311543-27.677257-27.311543-15.272229 0-27.662629 12.229486-27.662629 27.311543z m96.855772 0c0 15.067429 12.3904 27.296914 27.677257 27.296914s27.677257-12.214857 27.677257-27.296914c0-15.082057-12.3904-27.311543-27.677257-27.311543s-27.677257 12.229486-27.677257 27.311543z m110.709028 0c0 15.067429 12.3904 27.296914 27.677257 27.296914 15.272229 0 27.662629-12.214857 27.662629-27.296914 0-15.082057-12.3904-27.311543-27.662629-27.311543-15.286857 0-27.677257 12.229486-27.677257 27.311543z"  horiz-adv-x="1024" />

    
    <glyph glyph-name="xiangshujihuibao" unicode="&#58883;" d="M966.995712 895.984941H499.667468A32.722313 32.722313 0 0 1 466.824686 863.413214c0-17.964896 14.712241-32.556669 32.842782-32.556669h467.328244c11.836051 0 21.428372-9.517028 21.428372-21.23261v-429.621539c0-11.715582-9.592321-21.23261-21.428372-21.23261H499.667468A32.722313 32.722313 0 0 1 466.824686 326.213117c0-17.979955 14.712241-32.571728 32.842782-32.571727h467.328244C1015.107903 293.64139 1054.109648 332.462432 1054.109648 380.002396V809.488407C1054.109648 857.1639 1015.092845 895.984941 966.995712 895.984941zM711.602046 379.490404c2.514784 0 5.044627 0.271055 7.57447 0.918574a32.767489 32.767489 0 0 1 24.605735 23.58175l32.180204 121.959511 53.45799-49.648167c8.794216-8.206931 21.563899-11.068063 33.128895-7.423885a32.722313 32.722313 0 0 1 22.482473 24.891848l48.006782 247.5632c3.463475 17.7089-8.372575 34.649813-26.457941 38.037995-18.100424 3.388182-35.387684-8.206931-38.851159-25.93089l-36.562254-188.925055-50.1451 46.651508a33.851708 33.851708 0 0 1-32.044677 7.67988 32.752431 32.752431 0 0 1-23.009524-23.190226l-30.463525-115.183146-17.693842 20.193567a33.640887 33.640887 0 0 1-46.937621 3.388183 32.029618 32.029618 0 0 1-3.463476-45.98893l59.180254-67.357068a33.625829 33.625829 0 0 1 24.997258-11.218649z m-486.241832 231.932385c80.051458 0 145.22503 63.848416 145.225031 142.273547C370.600303 832.151584 305.411672 895.984941 225.345156 895.984941 145.293698 895.984941 80.120125 832.136525 80.120125 753.696336c0-78.42513 65.173572-142.273547 145.225031-142.273547z m0 217.566491a75.292944 75.292944 0 1 0 0.015059-150.600947 75.292944 75.292944 0 0 0-0.030117 150.600947z m358.033007-316.983294c0 43.263326-35.914734 78.440189-80.066516 78.440189H71.868019c-19.681576 0-38.037995-7.67988-51.726253-21.503665a68.787634 68.787634 0 0 1-20.088157-51.334729l9.185739-256.673646a70.459137 70.459137 0 0 1 31.382099-55.777013l39.092096-26.051359c1.340214-0.903515 2.13832-2.34914 2.258789-3.915233l18.898529-215.75946a94.417352 94.417352 0 0 1 31.246571-62.282323 98.332585 98.332585 0 0 1 66.107205-25.147843h53.864572c50.265569 0 92.038095 36.998953 97.21825 85.984542l45.747992 436.759309a5.571678 5.571678 0 0 0 3.73453 4.562752l127.666716 37.782c34.047469 9.893493 56.921466 40.131139 56.921466 74.916479z m-91.270106-12.769684l-112.638244-22.738469c-27.783096-8.191872-62.794315-31.90915-65.715682-60.189179l-30.689404-436.864719c-1.59621-15.645874-30.08706-27.496983-46.049164-27.496984h-38.805984c-16.368686 0-29.66542 11.986637-31.126103 28.008976L148.215064 180.671857a69.871852 69.871852 0 0 1-31.126103 52.102717l-31.758564 26.578409A5.270506 5.270506 0 0 0 82.936081 263.524212L81.475398 519.700925c0 1.807031 0.798105 3.117128 1.460683 3.764647a5.044627 5.044627 0 0 0 3.854999 1.566093h401.341509c7.438943 0 13.55273-5.993318 13.55273-13.281675a12.935328 12.935328 0 0 0-9.562204-12.498629z"  horiz-adv-x="1054" />

    
    <glyph glyph-name="tuijiankaocha" unicode="&#58884;" d="M430.665143 895.458743c127.736686 0 255.458743-0.555886 383.1808 0.541257 21.840457 0 38.209829-5.997714 54.037943-21.840457a5275.677257 5275.677257 0 0 1 135.3728-135.358172c14.189714-13.648457 20.743314-28.379429 20.743314-48.581485-0.541257-164.308114 0-329.142857-0.541257-493.450972 0-35.474286-2.735543-38.1952-37.668572-38.751085-4.9152 0-9.8304-0.541257-14.730971 0-31.114971 4.373943-43.125029-9.815771-60.591543-37.112686-28.935314-45.845943-12.551314-78.058057 9.815772-115.170743 20.743314-34.933029 38.765714-71.504457 58.411885-106.993371 10.371657-19.104914 4.9152-26.185143-15.828114-26.185143a7493.602743 7493.602743 0 0 1-156.672 0c-21.825829-0.555886-28.920686 9.815771-28.379429 30.017828a2019.913143 2019.913143 0 0 1 0 81.334857c-0.541257 14.730971 4.9152 33.28-20.728685 32.738743-22.922971-0.541257-19.104914-18.007771-19.104915-31.656228a2019.913143 2019.913143 0 0 1 0-81.334857c0.541257-21.825829-7.650743-31.656229-30.573714-31.656229-51.3024 1.097143-102.619429 0.541257-153.921828 0-22.922971 0-26.755657 8.192-15.828115 27.838171 27.838171 49.678629 54.037943 100.439771 81.334857 150.645029 7.636114 14.189714 11.454171 25.658514-1.097142 39.306971-6.5536 7.094857-12.010057 16.384-13.648458 25.102629-7.636114 39.306971-33.294629 43.125029-67.6864 43.125029-163.210971-1.6384-326.948571-0.541257-490.715428-0.541258-45.304686 0-45.845943 0.541257-45.845943 44.763429V852.333714C0 894.902857 0 895.458743 44.207543 895.458743H430.665143z m-3.803429-54.037943c-111.908571 0-224.3584-0.555886-336.252343 0.541257-27.838171 0.541257-36.571429-7.636114-36.571428-36.030171 1.097143-186.660571 1.097143-373.3504 0-560.0256 0-25.658514 6.5536-35.488914 33.835886-35.488915 156.672 1.097143 313.314743 1.097143 469.972114 0 23.478857 0 33.294629 7.650743 40.945371 29.476572 27.838171 83.529143 114.629486 129.901714 198.685257 109.173028 62.229943-15.828114 102.619429-55.676343 121.709715-116.267885 6.012343-19.104914 17.481143-24.020114 34.947657-21.284572 19.104914 2.735543 14.730971 17.466514 14.730971 29.476572 0 138.093714 0 276.743314 0.555886 414.837028 0 21.284571-7.094857 29.476571-28.379429 28.935315-37.668571-1.097143-75.337143 1.082514-113.005714-0.555886-25.643886-1.082514-34.377143 9.289143-33.294628 33.850514 1.6384 30.017829-1.082514 60.035657 0.555885 90.068114 1.6384 27.282286-9.289143 34.377143-34.933028 34.377143-110.811429-2.179657-222.164114-1.082514-333.5168-1.082514z m444.298972-655.008914c0 64.950857-48.566857 114.614857-112.4352 114.614857s-117.365029-52.399543-117.365029-115.170743c0-65.492114 50.219886-115.170743 116.267886-115.170743 67.6864 0 114.088229 47.484343 113.532343 115.712zM684.485486-17.188571c-0.541257 13.633829 0 26.741029-0.541257 40.374857 0 7.109486-1.6384 14.204343-9.289143 15.842743-7.094857 1.6384-9.274514-5.456457-11.454172-10.371658l-42.569143-85.138285c-3.832686-7.650743-5.471086-13.663086 6.538972-16.939886 39.848229-10.912914 57.856 1.6384 57.856 42.027886-0.541257 4.373943-0.541257 9.289143-0.541257 14.189714z m180.1216-56.232229c40.404114 0 40.404114 0 24.576 31.114971-10.927543 22.381714-21.840457 44.763429-33.850515 67.145143-3.2768 5.997714-4.359314 17.466514-14.730971 14.189715-8.192-2.735543-8.192-12.010057-8.192-20.187429 0-18.0224 1.097143-36.571429-0.541257-54.593829-2.194286-27.838171 5.456457-44.207543 32.738743-37.668571zM387.657143 588.8c78.584686 0 157.184-0.731429 235.139657 0 22.820571 0 35.488914-5.909943 35.488914-36.937143C658.285714 520.0896 643.715657 515.657143 622.153143 515.657143H155.062857C130.9696 515.657143 117.028571 523.044571 117.028571 555.549257 117.6576 588.8 135.402057 588.8 155.691886 588.8H387.657143z m0.629028-131.657143c78.584686 0 157.169371-0.746057 235.125029 0 23.4496 0 35.488914-6.729143 34.845257-37.317486 0-29.110857-12.039314-35.825371-33.5872-35.825371H150.645029c-24.078629 0-34.230857 11.936914-33.5872 40.301714 0.629029 29.842286 15.213714 32.841143 35.488914 32.841143h235.739428z m-1.901714 277.942857H622.153143c19.017143 0 35.488914-0.804571 36.132571-34.567314 0.629029-35.357257-15.213714-38.575543-36.7616-38.575543-155.896686 0.804571-312.437029 0-468.333714 0-19.646171 0-35.488914 1.609143-36.132571 34.567314C116.414171 731.062857 132.256914 735.085714 153.8048 735.085714h232.594286z"  horiz-adv-x="1024" />

    
    <glyph glyph-name="renzhigenzong" unicode="&#58891;" d="M759.998171 359.804343h-92.5696l-74.064457 146.709943-57.592685-207.828115-39.087543 417.6896L447.312457 720.457143l-98.742857-360.6528H190.171429v-50.936686h199.533714l69.953828 260.8128 39.087543-415.656228 49.371429-4.081372 57.592686 213.942857 28.803657-55.003428h211.880228L848.457143 359.789714zM117.028571 896h789.942858a117.028571 117.028571 0 0 0 117.028571-117.028571v-789.942858a117.028571 117.028571 0 0 0-117.028571-117.028571H117.028571a117.028571 117.028571 0 0 0-117.028571 117.028571V778.971429a117.028571 117.028571 0 0 0 117.028571 117.028571z m43.885715-73.142857a87.771429 87.771429 0 0 1-87.771429-87.771429v-702.171428a87.771429 87.771429 0 0 1 87.771429-87.771429h702.171428a87.771429 87.771429 0 0 1 87.771429 87.771429V735.085714a87.771429 87.771429 0 0 1-87.771429 87.771429H160.914286z"  horiz-adv-x="1024" />

    
    <glyph glyph-name="lishichaxuntongji" unicode="&#58892;" d="M240.938667 698.382222H776.248889v-60.928H240.924444v60.928z m-1.777778-122.453333h535.324444v-60.928h-535.324444v60.913778zM110.023111 819.555556h808.419556v-497.777778h67.384889v497.777778C985.827556 853.902222 955.676444 881.777778 918.442667 881.777778H110.023111C72.817778 881.777778 42.666667 853.902222 42.666667 819.555556v-871.111112C42.666667-85.902222 72.817778-113.777778 110.023111-113.777778h471.594667v62.222222H110.023111V819.555556zM240.497778 312.789333v-61.809777h161.962666c0 21.504 3.399111 42.225778 9.671112 61.809777H240.483556z m272.270222 123.605334H239.160889v-61.809778H441.6a228.295111 228.295111 0 0 0 71.168 61.809778z m451.128889-497.408l-138.282667 140.017777a218.609778 218.609778 0 0 1 51.015111 141.027556c0 119.466667-94.520889 216.32-211.086222 216.32-116.579556 0-211.057778-96.853333-211.057778-216.32 0-119.466667 94.506667-216.32 211.057778-216.32 42.211556 0 81.521778 12.700444 114.517333 34.56l141.184-143.004444c11.776-12.060444 30.862222-12.060444 42.638223 0a31.431111 31.431111 0 0 1 0 43.719111zM503.822222 220.017778c0 85.347556 71.822222 154.524444 160.412445 154.524444s160.398222-69.176889 160.398222-154.510222c0-85.347556-71.822222-154.524444-160.398222-154.524444-88.604444 0-160.426667 69.176889-160.426667 154.524444z"  horiz-adv-x="1024" />

    
    <glyph glyph-name="ai-connection" unicode="&#58978;" d="M344.626 295.464c8.607 3.256 19.065 6.233 31.491 14.042 18.109 11.379 32.062 34.843-1.603 63.595-111.384 160.502-70.843 267.145-53.924 307.317-14.133 5.496-30.208 8.747-48.608 8.747h-5.787c-106.593 0-134.923-96.947-137.085-151.323-1.43-128.215 76.955-179.192 76.955-179.192s4.883-6.742 4.883-26.297c0-4.458-2.906-17.813-7.921-21.847-43.752-35.43-189.787-72.341-199.992-148.665-5.395-22.053-2.168-44.959-1.106-66.186 23.896-18.349 100.454-33.905 100.454-33.905s6.356 19.31 12.808 51.222c9.536 47.171 73.357 123.507 229.435 182.492v0zM1021.191 162.512c-10.484 76.229-160.407 113.090-205.271 148.474-5.151 4.033-8.11 17.367-8.11 21.813 0 19.539 4.972 26.27 4.972 26.27s80.384 50.909 78.882 178.961c-2.191 54.311-36.079 151.135-140.477 151.135h-5.937c-22.504 0-41.425-4.278-57.578-11.272 22.338-74.782 49.177-212.002-63.755-303.96-44.306-66.052 103.281-104.794 80.341-94.485 133.549-60.018 169.492-106.062 179.279-153.668 8.172-39.733 12.808-64.031 12.808-64.031s100.058 15.272 125.936 34.66c1.116 21.204 4.422 44.078-1.090 66.103v0zM585.685 308.824c-6.312 5.016-9.943 21.612-9.943 27.136 0 24.28 6.077 32.626 6.077 32.626-0.111-0.072 98.734 53.379 96.79 222.424-2.692 67.509-44.256 187.833-172.348 187.833h-7.285c-134.018 0-169.661-120.323-172.366-187.833-1.809-159.138 96.768-222.424 96.768-222.424s11.954-13.634 11.954-37.916c0-5.53-9.485-16.824-15.787-21.847-55.013-43.982-253.102-88.31-265.943-183.044-9.943-40.19-68.755-103.929 126.791-129.589 53.869-7.067 127.043-11.245 225.859-11.245 453.509 0 359.745 87.859 346.999 139.37-12.849 94.73-212.535 140.529-267.566 184.509v0z"  horiz-adv-x="1025" />

    
    <glyph glyph-name="dian" unicode="&#58888;" d="M512 576a192.064 192.064 0 0 0 0-384 192 192 0 0 0 0 384z"  horiz-adv-x="1024" />

    
    <glyph glyph-name="guanbi" unicode="&#58897;" d="M512 429.056l233.472 233.472a31.744 31.744 0 0 0 45.056-45.056L557.056 384l233.472-233.472a31.744 31.744 0 0 0-45.056-45.056L512 338.944l-233.472-233.472a31.744 31.744 0 0 0-45.056 45.056L466.944 384 233.472 617.472a31.744 31.744 0 0 0 45.056 45.056z"  horiz-adv-x="1024" />

    
    <glyph glyph-name="xiala-yuan-tianchong" unicode="&#59334;" d="M301.847273 479.185455c6.749091 6.376727 15.36 9.541818 23.970909 9.541818 9.262545 0 18.501818-3.653818 25.367273-10.938182l152.040727-160.768 170.938182 162.117818a34.909091 34.909091 0 0 0 48.034909-50.641454l-196.282182-186.181819a33.326545 33.326545 0 0 0-24.971636-9.565091 34.839273 34.839273 0 0 0-24.413091 10.91491l-176.081455 186.181818a34.885818 34.885818 0 0 0 1.396364 49.338182M512-104.727273c269.917091 0 488.727273 218.810182 488.727273 488.727273S781.917091 872.727273 512 872.727273C242.106182 872.727273 23.272727 653.917091 23.272727 384s218.833455-488.727273 488.727273-488.727273"  horiz-adv-x="1024" />

    
    <glyph glyph-name="expandless" unicode="&#60222;" d="M512 553.984l256-256-59.989333-59.989333-196.010667 196.010667-196.010667-196.010667-59.989333 59.989333z"  horiz-adv-x="1024" />

    
    <glyph glyph-name="expandmore" unicode="&#60223;" d="M708.010667 530.005333l59.989333-59.989333-256-256-256 256 59.989333 59.989333 196.010667-196.010667z"  horiz-adv-x="1024" />

    


  </font>
</defs>
</svg>
